# xmcd CD database file
#
# Track frame offsets:
#	182
#	13507
#	28492
#	41920
#	56737
#	70500
#	85655
#	96362
#	106362
#	120915
#	135235
#	149232
#	163582
#	177695
#	192380
#	207060
#	221702
#	236237
#	248702
#	263367
#	278840
#	293002
#	305332
#	319387
#
# Disc length: 4454 seconds
#
# Revision: 3
# Processed by: cddbd v1.5PL3 Copyright (c) Steve Scherf et al.
# Submitted via: CDex 1.51
#
DISCID=68116418
DTITLE=Ella Fitzgerald - The Chronogical Classics - 1950
DYEAR=1950
DGENRE=Jazz
TTITLE0=Baby, Won't You Say You Love Me ?
TTITLE1=Don' Cha Go `Way Mad
TTITLE2=Solid As A Rock
TTITLE3=I've Got The World On A String
TTITLE4=Sugarfoot Rag
TTITLE5=Peas And Rice
TTITLE6=M.I.S.S.I.S.S.I.P.P.I.
TTITLE7=I Don't Want The World
TTITLE8=Ain't Nobody's Business But My Own
TTITLE9=I'll Never Be Free
TTITLE10=Dream A little Dream Of Me
TTITLE11=Can Anyone Explain ?
TTITLE12=Looking For A Boy
TTITLE13=My One And Only
TTITLE14=How Long Has This Been Going On ?
TTITLE15=I've Got A Crush On You
TTITLE16=But Not For Me
TTITLE17=Soon
TTITLE18=Someone To Wtch Over Me
TTITLE19=Maybe
TTITLE20=Santa Claus Got Stuck In My Chimney
TTITLE21=Molasses, Molasses
TTITLE22=Little Small Town Girl
TTITLE23=I Still Feel The Same About You
EXTD=YEAR: 1950
EXTT0=
EXTT1=
EXTT2=
EXTT3=
EXTT4=
EXTT5=
EXTT6=
EXTT7=
EXTT8=
EXTT9=
EXTT10=
EXTT11=
EXTT12=
EXTT13=
EXTT14=
EXTT15=
EXTT16=
EXTT17=
EXTT18=
EXTT19=
EXTT20=
EXTT21=
EXTT22=
EXTT23=
PLAYORDER=
